# xmcd CD database file
#
# Track frame offsets:
#	150
#	51461
#	123882
#	155587
#
# Disc length: 2775 seconds
#
# Revision: 0
# Processed by: cddbd v1.5.1PL2 Copyright (c) Steve Scherf et al.
# Submitted via: CDex 1.51
#
DISCID=300ad504
DTITLE=Hermeto Pascoal - 26.06.2005 domicil, Dortmund (1|2)
DYEAR=2005
DGENRE=Jazz
TTITLE0=Hermeto Pascoal - Caio
TTITLE1=Hermeto Pascoal - Taiane
TTITLE2=Hermeto Pascoal - Quiabo
TTITLE3=Hermeto Pascoal - Viva o Rio de Janeiro
EXTD=YEAR: 2005
EXTT0=
EXTT1=
EXTT2=
EXTT3=
PLAYORDER=
